<svg xmlns="http://www.w3.org/2000/svg" width="641" height="873.117" viewBox="0 0 641 873.117">
    <path id="prefix__Path_841" d="M322.124 619.349c0 156.841 112.669 287.345 261.468 315.052-247.315-239.949 40.928-454.892 55.074-625.336 3.4 95-18.407 160.168-34.788 240.437-9.238 45.293-14.828 136.22 16 188.015 43.873 73.711 157.773 42.71 106.368-74.414 149.628 56.849 90.092 204.786 15.023 261.252 128.743-41.61 221.856-162.431 221.856-305.007 0-32.8-3.432-62.071-11.891-89.444-14.3-46.309-43.824-95.731-80.3-127.135-2.984 110.073-95.184 110.56-112.334 51.622-9.35-32.114 10.6-95.431 15.566-129.759C792.868 195.408 710.88 114.5 607.373 61.284c64.34 139.429-176.354 195.38-155.782 437.934 9.44 111.443-85.044 77.372-52.463-40.622 5.284-19.124 12.378-38 18.24-57.1-65.231 60.56-95.243 128.583-95.243 217.853z" data-name="Path 841" transform="translate(-322.124 -61.284)" style="fill:#ededed;fill-rule:evenodd;opacity:.613"/>
</svg>
