<svg xmlns="http://www.w3.org/2000/svg" width="291.228" height="35" viewBox="0 0 291.228 35">
    <defs>
        <style>
            .prefix__cls-2{fill:#fff}
        </style>
    </defs>
    <g id="prefix__Group_336" data-name="Group 336" transform="translate(-55.18 -43.874)">
        <g id="prefix__Group_332" data-name="Group 332" transform="translate(55.18 43.874)">
            <path id="prefix__Path_1386" d="M76.468 58.329c1.536 1.941 1.512 6.746-.024 7.523s-2.72-1.432-2.3-7.572c.455-6.722-7.959-14.406-7.959-14.406C69.431 52.6 57.9 58.328 55.712 65.852c-1.7 5.841 1.026 9.87 3.189 11.044a12.815 12.815 0 0 0 3.1 1.551 3.5 3.5 0 0 1-.7-1.089 6.991 6.991 0 0 1-.719-3.3 29.639 29.639 0 0 1 1.877-7.9c-.144 1.259-.453 5.494.606 5.51.942.014.788-1.259 1.081-4.81.311-3.767 5.276-11.848 5.276-11.848-2.1 6.679.115 10.506 2.166 13.565a7.573 7.573 0 0 0 .141-3.114s1.374 2.573 1.807 3.748c0 0 1.436 3.457.714 6.133a4.922 4.922 0 0 1-1.682 3.532 12.994 12.994 0 0 0 5.212-2.51l.063-.055a6.6 6.6 0 0 0 1.841-2.44 11.862 11.862 0 0 0 1.358-5.882 14.119 14.119 0 0 0-4.574-9.658z" data-name="Path 1386" transform="translate(-55.18 -43.874)" style="fill:#1361aa"/>
        </g>
        <g id="prefix__Group_335" data-name="Group 335" transform="translate(86.925 60.87)">
            <g id="prefix__Group_333" data-name="Group 333" transform="translate(0 .144)">
                <path id="prefix__Path_1387" d="M97.581 83.053h3.919v-4.484h11.647c3.836 0 4.25-3.454 4.25-4.94V72.1c0-2.77-.688-5.334-5.679-5.334H97.581zm13.2-7.365H101.5v-6.042h8.813c2.5 0 3.022 1.455 3.022 2.677v.69a2.427 2.427 0 0 1-2.558 2.675z" class="prefix__cls-2" data-name="Path 1387" transform="translate(-97.581 -66.767)"/>
            </g>
            <path id="prefix__Path_1388" d="M125.743 70.836h12.172c3.106 0 3.942 1.545 3.942 3.907v.835c0 1.762-.4 2.8-2.252 3.234v.036c1.2.218 2.2.746 2.2 2.907v2.234h-4.035v-1.58c0-1.381-.4-1.834-1.653-1.834h-6.341v3.415h-4.033zm4.033 6.468h6.667c1.09 0 1.49-.436 1.49-1.381v-.436c0-1.163-.582-1.381-1.853-1.381h-6.3z" class="prefix__cls-2" data-name="Path 1388" transform="translate(-104.658 -67.646)"/>
            <path id="prefix__Path_1389" d="M150.911 70.836H165.3v3.052h-10.356V76h9.81v2.725h-9.81v2.107h10.592v3.161h-14.625z" class="prefix__cls-2" data-name="Path 1389" transform="translate(-110.983 -67.646)"/>
            <path id="prefix__Path_1390" d="M173.7 70.836h6.2l4.56 8.466 4.56-8.466h6.195v13.153h-3.924v-9.447h-.037l-5.287 9.447h-3.016l-5.287-9.447h-.036v9.447H173.7z" class="prefix__cls-2" data-name="Path 1390" transform="translate(-116.71 -67.646)"/>
            <path id="prefix__Path_1391" d="M206.368 70.836h4.032v13.153h-4.033z" class="prefix__cls-2" data-name="Path 1391" transform="translate(-124.92 -67.646)"/>
            <path id="prefix__Path_1392" d="M215.687 70.836h14.389v3.052H219.72V76h9.81v2.725h-9.81v2.107h10.592v3.161h-14.625z" class="prefix__cls-2" data-name="Path 1392" transform="translate(-127.262 -67.646)"/>
            <path id="prefix__Path_1393" d="M238.478 70.836h12.172c3.107 0 3.943 1.545 3.943 3.907v.835c0 1.762-.4 2.8-2.253 3.234v.036c1.2.218 2.2.746 2.2 2.907v2.234h-4.04v-1.58c0-1.381-.4-1.834-1.653-1.834h-6.337v3.415h-4.032zm4.032 6.464h6.668c1.09 0 1.49-.436 1.49-1.381v-.436c0-1.163-.582-1.381-1.854-1.381h-6.3z" class="prefix__cls-2" data-name="Path 1393" transform="translate(-132.989 -67.646)"/>
            <g id="prefix__Group_334" data-name="Group 334" transform="translate(128.576)">
                <path id="prefix__Path_1394" d="M277 82.861h3.915V69.454h7.689v-2.879h-19.289v2.879H277z" class="prefix__cls-2" data-name="Path 1394" transform="translate(-269.315 -66.575)"/>
            </g>
            <path id="prefix__Path_1395" d="M295.147 70.836h4.032v4.688h8.5v-4.688h4.033v13.153h-4.033v-4.977h-8.5v4.977h-4.032z" class="prefix__cls-2" data-name="Path 1395" transform="translate(-147.23 -67.646)"/>
            <path id="prefix__Path_1396" d="M320.922 70.836h14.388v3.052h-10.356V76h9.811v2.725h-9.811v2.107h10.592v3.161h-14.624z" class="prefix__cls-2" data-name="Path 1396" transform="translate(-153.708 -67.646)"/>
            <path id="prefix__Path_1397" d="M343.711 70.836h12.172c3.107 0 3.943 1.545 3.943 3.907v.835c0 1.762-.4 2.8-2.254 3.234v.036c1.2.218 2.2.746 2.2 2.907v2.234h-4.034v-1.58c0-1.381-.4-1.834-1.653-1.834h-6.34v3.415h-4.033zm4.033 6.468h6.667c1.09 0 1.49-.436 1.49-1.381v-.436c0-1.163-.581-1.381-1.853-1.381h-6.3z" class="prefix__cls-2" data-name="Path 1397" transform="translate(-159.435 -67.646)"/>
            <path id="prefix__Path_1398" d="M367.908 70.836h6.192l4.56 8.466 4.56-8.466h6.195v13.153h-3.924v-9.447h-.037l-5.286 9.447h-3.016l-5.287-9.447h-.037v9.447h-3.924z" class="prefix__cls-2" data-name="Path 1398" transform="translate(-165.515 -67.646)"/>
            <path id="prefix__Path_1399" d="M405.684 70.836h5.25l7.231 13.153h-4.487l-1.254-2.325h-8.175l-1.181 2.325h-4.5zm.073 7.994h5.159l-2.616-4.942z" class="prefix__cls-2" data-name="Path 1399" transform="translate(-173.219 -67.646)"/>
            <path id="prefix__Path_1400" d="M426.665 70.836h4.035v9.775h9.065v3.378h-13.1z" class="prefix__cls-2" data-name="Path 1400" transform="translate(-180.281 -67.646)"/>
        </g>
    </g>
</svg>
